<svg width="132" height="23" viewBox="0 0 132 23" fill="none" xmlns="http://www.w3.org/2000/svg">
<g clip-path="url(#clip0_512_455)">
<path d="M21.0969 8.41927C21.0392 8.24946 20.9331 8.10025 20.7916 7.99006C20.6501 7.87987 20.4795 7.81353 20.3007 7.79922L15.0716 7.38371L12.8087 2.3747C12.7367 2.21337 12.6195 2.07634 12.4712 1.98016C12.323 1.88397 12.1501 1.83274 11.9734 1.83264C11.7968 1.83254 11.6238 1.88359 11.4755 1.97961C11.3272 2.07563 11.2098 2.21253 11.1375 2.37378L8.87473 7.38371L3.64558 7.79922C3.46989 7.81314 3.30193 7.87738 3.16179 7.98425C3.02165 8.09113 2.91527 8.23612 2.85537 8.40187C2.79548 8.56762 2.7846 8.74712 2.82405 8.91889C2.8635 9.09066 2.9516 9.24743 3.07781 9.37044L6.94212 13.1375L5.57544 19.0555C5.53394 19.2347 5.54724 19.4221 5.61361 19.5936C5.67999 19.7651 5.79637 19.9127 5.94765 20.0172C6.09894 20.1217 6.27815 20.1783 6.46202 20.1797C6.6459 20.1811 6.82595 20.1272 6.97881 20.025L11.9731 16.6955L16.9675 20.025C17.1237 20.1288 17.308 20.1822 17.4955 20.1781C17.683 20.1739 17.8647 20.1125 18.0162 20.002C18.1678 19.8916 18.2819 19.7373 18.3431 19.5601C18.4044 19.3828 18.4099 19.1911 18.3589 19.0106L16.6813 13.1403L20.8419 9.39612C21.1143 9.15031 21.2143 8.7669 21.0969 8.41927Z" fill="#F3CD03"/>
<path d="M48.1125 8.41927C48.0548 8.24946 47.9487 8.10025 47.8072 7.99006C47.6658 7.87987 47.4951 7.81353 47.3163 7.79922L42.0872 7.38371L39.8244 2.3747C39.7523 2.21337 39.6351 2.07634 39.4869 1.98016C39.3387 1.88397 39.1658 1.83274 38.9891 1.83264C38.8124 1.83254 38.6394 1.88359 38.4911 1.97961C38.3428 2.07563 38.2254 2.21253 38.1532 2.37378L35.8904 7.38371L30.6612 7.79922C30.4855 7.81314 30.3176 7.87738 30.1774 7.98425C30.0373 8.09113 29.9309 8.23612 29.871 8.40187C29.8111 8.56762 29.8002 8.74712 29.8397 8.91889C29.8791 9.09066 29.9672 9.24743 30.0934 9.37044L33.9577 13.1375L32.5911 19.0555C32.5496 19.2347 32.5629 19.4221 32.6292 19.5936C32.6956 19.7651 32.812 19.9127 32.9633 20.0172C33.1146 20.1217 33.2938 20.1783 33.4776 20.1797C33.6615 20.1811 33.8416 20.1272 33.9944 20.025L38.9888 16.6955L43.9831 20.025C44.1393 20.1288 44.3236 20.1822 44.5111 20.1781C44.6986 20.1739 44.8803 20.1125 45.0319 20.002C45.1834 19.8916 45.2975 19.7373 45.3587 19.5601C45.42 19.3828 45.4255 19.1911 45.3746 19.0106L43.6969 13.1403L47.8575 9.39612C48.1299 9.15031 48.2299 8.7669 48.1125 8.41927Z" fill="#F3CD03"/>
<path d="M75.1242 8.41927C75.0666 8.24946 74.9604 8.10025 74.819 7.99006C74.6775 7.87987 74.5068 7.81353 74.3281 7.79922L69.0989 7.38371L66.8361 2.3747C66.764 2.21337 66.6468 2.07634 66.4986 1.98016C66.3504 1.88397 66.1775 1.83274 66.0008 1.83264C65.8241 1.83254 65.6511 1.88359 65.5028 1.97961C65.3545 2.07563 65.2371 2.21253 65.1649 2.37378L62.9021 7.38371L57.6729 7.79922C57.4972 7.81314 57.3293 7.87738 57.1891 7.98425C57.049 8.09113 56.9426 8.23612 56.8827 8.40187C56.8228 8.56762 56.8119 8.74712 56.8514 8.91889C56.8908 9.09066 56.9789 9.24743 57.1052 9.37044L60.9695 13.1375L59.6028 19.0555C59.5613 19.2347 59.5746 19.4221 59.641 19.5936C59.7073 19.7651 59.8237 19.9127 59.975 20.0172C60.1263 20.1217 60.3055 20.1783 60.4894 20.1797C60.6732 20.1811 60.8533 20.1272 61.0062 20.025L66.0005 16.6955L70.9948 20.025C71.1511 20.1288 71.3353 20.1822 71.5228 20.1781C71.7103 20.1739 71.8921 20.1125 72.0436 20.002C72.1951 19.8916 72.3092 19.7373 72.3705 19.5601C72.4317 19.3828 72.4372 19.1911 72.3863 19.0106L70.7087 13.1403L74.8692 9.39612C75.1416 9.15031 75.2416 8.7669 75.1242 8.41927Z" fill="#F3CD03"/>
<path d="M102.138 8.41927C102.08 8.24946 101.974 8.10025 101.833 7.99006C101.691 7.87987 101.52 7.81353 101.342 7.79922L96.1126 7.38371L93.8498 2.3747C93.7777 2.21337 93.6605 2.07634 93.5123 1.98016C93.364 1.88397 93.1912 1.83274 93.0145 1.83264C92.8378 1.83254 92.6648 1.88359 92.5165 1.97961C92.3682 2.07563 92.2508 2.21253 92.1786 2.37378L89.9157 7.38371L84.6866 7.79922C84.5109 7.81314 84.3429 7.87738 84.2028 7.98425C84.0627 8.09113 83.9563 8.23612 83.8964 8.40187C83.8365 8.56762 83.8256 8.74712 83.8651 8.91889C83.9045 9.09066 83.9926 9.24743 84.1188 9.37044L87.9831 13.1375L86.6165 19.0555C86.575 19.2347 86.5883 19.4221 86.6546 19.5936C86.721 19.7651 86.8374 19.9127 86.9887 20.0172C87.14 20.1217 87.3192 20.1783 87.503 20.1797C87.6869 20.1811 87.867 20.1272 88.0198 20.025L93.0142 16.6955L98.0085 20.025C98.1647 20.1288 98.349 20.1822 98.5365 20.1781C98.724 20.1739 98.9057 20.1125 99.0573 20.002C99.2088 19.8916 99.3229 19.7373 99.3841 19.5601C99.4454 19.3828 99.4509 19.1911 99.3999 19.0106L97.7223 13.1403L101.883 9.39612C102.155 9.15031 102.255 8.7669 102.138 8.41927Z" fill="#F3CD03"/>
<path d="M115 13.1377L113.633 19.0557C113.591 19.2349 113.603 19.4227 113.669 19.5945C113.736 19.7664 113.852 19.9143 114.003 20.0191C114.155 20.1238 114.334 20.1804 114.518 20.1814C114.703 20.1825 114.883 20.1281 115.035 20.0252L120.03 16.6956L125.024 20.0252C125.18 20.1289 125.365 20.1823 125.552 20.1782C125.74 20.1741 125.921 20.1127 126.073 20.0022C126.224 19.8917 126.339 19.7375 126.4 19.5602C126.461 19.383 126.467 19.1912 126.416 19.0107L124.738 13.1404L128.899 9.39628C129.032 9.27629 129.127 9.11988 129.172 8.94638C129.218 8.77289 129.211 8.58992 129.153 8.4201C129.096 8.25029 128.99 8.10107 128.848 7.99091C128.707 7.88075 128.536 7.81448 128.357 7.80029L123.128 7.38386L120.865 2.37485C120.793 2.21356 120.676 2.0766 120.528 1.98049C120.379 1.88439 120.206 1.83325 120.03 1.83325C119.853 1.83325 119.68 1.88439 119.532 1.98049C119.384 2.0766 119.266 2.21356 119.194 2.37485L116.931 7.38386L111.702 7.79937C111.527 7.81329 111.359 7.87753 111.218 7.98441C111.078 8.09128 110.972 8.23627 110.912 8.40202C110.852 8.56777 110.841 8.74727 110.881 8.91904C110.92 9.09081 111.008 9.24758 111.134 9.37059L115 13.1377ZM117.617 9.16972C117.78 9.15682 117.938 9.10012 118.072 9.00555C118.206 8.91098 118.312 8.78203 118.38 8.63222L120.03 4.98071L121.68 8.63222C121.747 8.78203 121.854 8.91098 121.988 9.00555C122.122 9.10012 122.279 9.15682 122.443 9.16972L126.086 9.45865L123.086 12.159C122.826 12.3938 122.722 12.7552 122.817 13.0927L123.967 17.1148L120.54 14.83C120.389 14.729 120.212 14.6751 120.031 14.6751C119.85 14.6751 119.673 14.729 119.523 14.83L115.942 17.2175L116.905 13.0478C116.94 12.8944 116.935 12.7346 116.891 12.5836C116.847 12.4326 116.764 12.2955 116.652 12.1856L113.865 9.46874L117.617 9.16972Z" fill="#F3CD03"/>
</g>
<defs>
<clipPath id="clip0_512_455">
<rect width="130.068" height="22.0136" fill="white" transform="translate(0.966797)"/>
</clipPath>
</defs>
</svg>
